<?xml version="1.0" standalone="no"?>
<!DOCTYPE svg PUBLIC "-//W3C//DTD SVG 20010904//EN"
 "http://www.w3.org/TR/2001/REC-SVG-20010904/DTD/svg10.dtd">
<svg version="1.0" xmlns="http://www.w3.org/2000/svg"
 width="608.000000pt" height="608.000000pt" viewBox="0 0 608.000000 608.000000"
 preserveAspectRatio="xMidYMid meet">
<metadata>
Created by potrace 1.14, written by Peter Selinger 2001-2017
</metadata>
<g transform="translate(0.000000,608.000000) scale(0.100000,-0.100000)"
fill="#000000" stroke="none">
<path d="M0 3040 l0 -3040 3040 0 3040 0 0 3040 0 3040 -3040 0 -3040 0 0
-3040z m3247 2565 c190 -60 333 -201 405 -400 19 -53 22 -87 27 -305 3 -135 4
-641 1 -1125 l-5 -880 -23 -62 c-27 -75 -52 -120 -108 -193 -73 -96 -174 -166
-298 -207 -103 -34 -265 -38 -361 -9 -208 62 -370 223 -441 436 -18 52 -19
118 -22 1119 -3 1200 -5 1160 69 1311 32 65 60 102 118 160 171 170 408 228
638 155z m-1011 -430 c17 -26 12 -81 -6 -70 -6 3 -10 2 -10 -3 0 -5 -8 -12
-17 -15 -10 -3 -43 -20 -73 -38 -30 -17 -75 -42 -99 -55 -24 -13 -40 -24 -35
-24 5 0 -11 -12 -36 -27 -41 -24 -86 -58 -147 -114 -13 -11 -23 -18 -23 -16 0
3 -38 -34 -85 -81 -47 -46 -85 -88 -85 -92 0 -5 -16 -17 -36 -29 -21 -13 -32
-26 -28 -33 4 -6 0 -16 -8 -22 -8 -6 -17 -19 -21 -29 -4 -10 -11 -16 -16 -12
-8 5 -24 -11 -26 -25 -3 -20 -18 -50 -26 -50 -5 0 -9 -6 -9 -14 0 -8 -5 -18
-12 -22 -7 -5 -8 -3 -3 6 5 8 4 11 -3 6 -6 -4 -9 -12 -6 -19 2 -7 -5 -23 -16
-35 -12 -12 -18 -27 -14 -34 4 -6 3 -8 -3 -5 -9 6 -27 -20 -23 -32 1 -2 -2 -7
-7 -10 -4 -3 -14 -17 -21 -30 -11 -19 -11 -22 0 -15 7 4 5 -2 -4 -13 -10 -11
-18 -25 -18 -32 0 -7 -5 -9 -12 -5 -8 5 -9 2 -5 -9 3 -10 2 -17 -3 -17 -6 0
-10 -9 -10 -20 0 -11 -4 -20 -10 -20 -5 0 -10 -9 -10 -19 0 -11 -5 -23 -11
-27 -6 -3 -9 -15 -6 -25 3 -10 1 -19 -5 -21 -5 -2 -10 -13 -11 -26 0 -12 -4
-22 -8 -22 -4 0 -9 -12 -12 -27 -3 -16 -11 -41 -18 -58 -6 -16 -13 -41 -15
-54 -2 -13 -6 -31 -10 -40 -7 -17 -11 -37 -16 -93 -2 -20 -6 -34 -9 -32 -3 2
-12 -65 -19 -149 -14 -159 -4 -443 17 -470 6 -6 9 -31 7 -55 -1 -26 2 -40 8
-36 5 4 9 -4 7 -17 -1 -13 1 -31 4 -39 3 -8 16 -49 27 -90 12 -41 26 -80 31
-86 5 -6 6 -14 3 -17 -4 -4 1 -18 10 -32 9 -14 18 -39 20 -56 2 -17 8 -34 13
-38 6 -3 15 -22 22 -42 6 -20 23 -51 36 -69 14 -19 25 -39 25 -46 0 -6 7 -17
15 -24 9 -7 13 -15 10 -18 -2 -3 3 -11 13 -19 9 -8 11 -12 5 -8 -9 4 -11 1 -7
-9 3 -9 10 -13 15 -10 5 3 9 -2 9 -10 0 -16 59 -102 96 -142 12 -13 20 -25 18
-27 -8 -8 248 -267 258 -261 5 3 7 1 6 -4 -3 -10 115 -103 182 -145 19 -12 40
-26 46 -32 25 -24 276 -145 369 -178 98 -34 175 -58 205 -64 8 -1 43 -9 78
-17 35 -8 82 -16 105 -18 l42 -3 3 388 2 387 -22 9 c-94 37 -176 77 -172 83 5
7 -18 12 -39 9 -4 0 -6 5 -5 11 2 7 -3 12 -10 10 -7 -1 -15 5 -18 13 -4 8 -10
15 -15 15 -12 0 -44 27 -83 69 -17 19 -48 52 -68 74 -21 23 -38 47 -38 54 0 7
-4 13 -9 13 -5 0 -11 8 -14 18 -3 9 -13 28 -21 42 -23 36 -40 83 -37 100 2 8
-1 12 -5 7 -10 -9 -32 55 -40 113 -25 203 -27 875 -2 891 7 5 9 9 3 9 -5 1 1
6 14 11 19 8 29 5 47 -12 l23 -22 4 -421 c3 -400 5 -454 17 -466 9 -9 32 -74
37 -104 6 -28 59 -118 75 -124 5 -2 6 -8 3 -12 -3 -5 4 -15 15 -23 11 -7 17
-16 14 -19 -3 -4 4 -9 15 -13 12 -3 21 -12 21 -20 0 -7 16 -26 36 -41 20 -16
42 -34 48 -39 30 -29 140 -86 211 -111 92 -31 128 -58 119 -87 -3 -11 -2 -17
2 -14 5 3 8 -52 7 -121 -2 -70 -4 -269 -5 -443 -3 -375 3 -355 -111 -344 -104
9 -255 40 -237 48 8 4 5 4 -7 1 -13 -3 -28 -2 -35 2 -7 5 -19 9 -28 9 -40 4
-91 20 -149 46 -35 16 -66 28 -68 25 -2 -2 -16 2 -30 9 -15 8 -31 11 -36 8 -6
-3 -7 -1 -3 5 4 7 2 13 -3 13 -34 4 -71 20 -71 30 0 5 -6 9 -13 9 -13 0 -89
38 -97 49 -3 4 -31 20 -64 36 -32 16 -61 35 -63 42 -3 7 -9 11 -13 8 -4 -2
-18 5 -32 18 -13 12 -41 33 -61 47 -20 14 -37 29 -37 33 0 5 -5 5 -10 2 -5 -3
-10 1 -10 9 0 9 -5 16 -10 16 -6 0 -24 14 -42 30 -17 17 -35 30 -40 30 -5 0
-7 4 -4 8 3 5 -4 15 -16 23 -31 21 -73 70 -70 81 1 5 -2 7 -7 3 -6 -3 -18 7
-28 21 -10 15 -32 43 -50 62 -18 19 -33 39 -33 44 0 5 -5 6 -10 3 -6 -4 -9 -2
-8 3 2 5 -9 24 -25 41 -15 17 -27 33 -27 36 0 3 -9 15 -20 27 -11 12 -20 28
-20 35 0 7 -5 13 -11 13 -5 0 -7 5 -4 10 3 6 2 10 -4 10 -5 0 -13 10 -17 23
-4 12 -17 36 -30 52 -12 17 -26 42 -29 57 -4 16 -12 25 -18 21 -6 -4 -8 0 -4
10 3 10 2 17 -3 17 -13 0 -41 61 -33 73 4 6 1 7 -7 2 -10 -6 -12 -4 -7 8 3 8
-1 21 -9 28 -9 7 -12 20 -8 32 4 13 2 17 -5 13 -7 -5 -11 2 -11 16 -1 13 -9
41 -20 63 -11 22 -19 52 -20 67 0 15 -5 30 -11 34 -6 3 -9 15 -6 25 3 11 1 19
-4 19 -5 0 -9 10 -9 23 0 12 -7 50 -16 82 -18 72 -21 88 -35 230 -10 97 -7
363 5 420 2 11 7 45 11 75 6 51 20 113 32 150 7 20 15 60 17 87 0 11 4 19 9
16 4 -2 7 5 7 17 0 11 8 37 17 58 9 20 18 44 19 52 5 27 30 90 35 86 2 -2 5 8
6 22 0 15 6 28 12 30 5 2 7 10 4 19 -5 12 -3 14 7 8 10 -6 12 -4 7 8 -3 9 5
26 21 43 15 15 21 24 13 19 -9 -5 -8 2 5 24 10 17 22 31 27 31 4 0 5 5 2 11
-7 10 34 79 48 79 4 0 7 7 7 15 0 8 4 15 8 15 4 0 14 16 21 36 7 19 15 33 18
30 3 -3 17 12 32 33 78 115 301 344 412 423 79 57 148 105 170 118 69 41 186
99 201 100 10 0 25 -11 34 -25z m1752 -9 c73 -38 274 -170 342 -226 23 -19 78
-69 121 -112 44 -42 79 -73 79 -70 0 4 9 -7 20 -25 10 -17 28 -37 39 -43 12
-6 21 -15 21 -21 0 -11 70 -102 83 -107 4 -2 7 -10 7 -17 0 -8 9 -19 21 -25
11 -7 18 -17 16 -24 -3 -7 8 -27 24 -46 16 -18 29 -39 29 -46 0 -7 11 -26 25
-42 14 -17 25 -34 24 -39 -4 -14 13 -43 21 -38 4 3 11 -11 14 -30 4 -19 11
-35 16 -35 8 0 24 -36 22 -50 0 -3 4 -10 10 -17 5 -7 6 -18 2 -24 -4 -8 -3 -9
4 -5 8 5 12 -1 12 -14 0 -12 7 -34 15 -48 19 -35 67 -184 60 -190 -3 -3 -1
-10 4 -16 29 -36 73 -395 65 -526 -2 -36 -6 -101 -8 -145 -2 -44 -7 -91 -10
-105 -4 -14 -9 -43 -12 -65 -8 -58 -43 -215 -53 -234 -5 -9 -12 -35 -16 -58
-4 -24 -10 -45 -14 -48 -5 -2 -14 -26 -21 -52 -7 -27 -19 -53 -28 -60 -8 -7
-12 -19 -8 -28 3 -9 2 -13 -4 -10 -6 3 -10 1 -10 -5 0 -17 -72 -164 -82 -168
-4 -2 -8 -9 -8 -17 0 -7 -7 -18 -15 -25 -8 -7 -13 -16 -10 -20 3 -5 1 -10 -4
-12 -5 -1 -31 -38 -58 -80 -27 -43 -53 -75 -58 -70 -4 4 -5 -1 -2 -11 4 -11 3
-16 -3 -12 -6 3 -14 -5 -20 -19 -5 -14 -14 -26 -19 -26 -5 0 -13 -9 -16 -20
-4 -11 -11 -18 -16 -15 -5 4 -9 1 -9 -5 0 -14 -112 -126 -123 -122 -5 1 -6 -2
-3 -7 6 -10 -90 -97 -130 -119 -13 -7 -24 -18 -24 -24 0 -6 -3 -9 -6 -5 -3 3
-17 -5 -30 -18 -13 -13 -33 -26 -44 -30 -11 -3 -20 -10 -20 -15 0 -5 -21 -22
-47 -37 -27 -15 -50 -31 -51 -35 -2 -5 -7 -6 -12 -3 -5 3 -15 -2 -24 -10 -8
-8 -42 -28 -76 -44 -33 -16 -66 -33 -73 -38 -6 -5 -30 -15 -52 -22 -22 -8 -58
-22 -80 -31 -118 -53 -408 -127 -452 -115 -12 3 -25 1 -28 -5 -3 -5 -31 -10
-60 -10 -43 0 -56 4 -65 19 -6 13 -10 181 -10 479 0 527 -11 474 108 511 75
23 201 90 238 126 12 11 32 29 45 40 13 12 38 38 54 59 17 20 35 43 41 49 13
14 70 112 66 112 -2 0 1 13 7 28 6 16 11 33 11 38 0 6 4 8 8 5 4 -2 8 3 9 12
1 9 8 58 17 107 13 71 16 167 16 459 0 365 0 369 22 387 26 24 30 24 57 0 l23
-20 -4 -442 c-2 -338 -6 -443 -15 -446 -7 -3 -15 -27 -19 -54 -4 -27 -11 -49
-16 -49 -5 0 -8 -8 -7 -17 3 -31 -1 -44 -10 -39 -5 3 -11 -5 -15 -17 -3 -13
-17 -40 -31 -61 -14 -21 -22 -42 -19 -48 4 -7 2 -8 -4 -4 -7 4 -12 2 -12 -5 0
-7 -14 -25 -32 -41 -17 -15 -28 -28 -23 -28 4 0 0 -9 -10 -20 -10 -11 -22 -17
-28 -13 -5 3 -7 2 -4 -4 4 -6 -14 -29 -38 -52 -25 -23 -45 -38 -45 -34 0 4 -5
0 -11 -9 -5 -10 -17 -18 -24 -18 -8 0 -15 -5 -15 -11 0 -5 -4 -7 -10 -4 -5 3
-10 2 -10 -3 0 -11 -121 -72 -144 -72 -9 0 -16 -4 -16 -10 0 -5 -11 -10 -24
-10 -13 0 -27 -7 -30 -16 -3 -9 -6 -186 -6 -394 l0 -379 23 4 c163 26 234 38
242 43 6 4 15 7 22 8 51 8 256 87 356 138 122 61 327 191 327 206 0 5 8 11 18
14 19 6 261 236 249 236 -4 0 5 13 20 28 15 15 42 45 58 66 17 21 35 44 42 51
7 7 9 15 6 19 -4 3 0 6 7 6 7 0 11 3 7 6 -3 3 3 15 13 27 11 11 17 25 13 30
-3 6 -1 7 4 4 6 -4 16 7 23 24 7 17 18 36 24 43 18 19 86 153 80 158 -2 3 2
11 11 18 8 7 15 21 15 32 0 11 9 33 20 48 11 16 17 35 14 44 -3 9 -1 16 4 16
6 0 18 35 28 78 9 42 21 80 25 83 5 3 10 18 11 35 1 16 5 34 8 39 28 41 47
544 26 670 -4 28 -9 61 -11 75 -10 74 -29 148 -38 143 -6 -3 -7 -1 -3 5 4 6 0
26 -7 44 -8 18 -17 51 -21 73 -8 45 -28 95 -37 95 -4 0 -10 7 -13 16 -4 9 -2
13 5 8 6 -4 -1 15 -17 42 -16 27 -27 49 -25 49 2 0 1 10 -3 23 -4 12 -11 22
-16 22 -5 0 -6 7 -3 17 4 10 2 14 -4 10 -6 -4 -16 11 -23 33 -7 22 -18 40 -23
40 -6 0 -8 3 -5 6 3 3 -5 16 -18 29 -13 13 -24 33 -24 44 0 11 -9 26 -20 34
-11 8 -17 17 -14 20 4 4 -4 16 -17 28 -13 11 -18 17 -10 13 9 -5 12 -3 7 4 -4
7 -14 12 -21 12 -8 0 -12 6 -9 14 3 8 0 17 -7 22 -8 5 -10 3 -4 -7 4 -8 -3 -3
-17 11 -13 14 -23 28 -21 32 2 5 -1 16 -6 25 -6 10 -11 14 -11 10 0 -10 -40
28 -84 81 -20 24 -36 42 -36 39 0 -3 -27 21 -59 54 -33 32 -63 59 -68 59 -5 0
-29 20 -55 45 -26 25 -53 45 -60 45 -7 0 -22 11 -32 25 -11 14 -25 24 -33 21
-7 -3 -13 -2 -13 3 0 5 -10 11 -23 15 -12 3 -31 13 -42 23 -12 10 -38 27 -60
38 -22 11 -42 22 -45 25 -3 3 -17 11 -32 19 -35 18 -41 36 -23 72 20 38 40 37
123 -5z m-1751 -392 c2 -6 -42 -44 -98 -84 -346 -248 -568 -589 -651 -1003
-18 -92 -22 -145 -22 -292 0 -206 14 -304 70 -485 131 -421 460 -803 841 -975
108 -48 126 -58 131 -72 9 -28 -32 -23 -121 17 -420 184 -752 550 -897 989
-170 514 -77 1085 243 1501 66 85 196 218 276 283 148 119 217 156 228 121z
m1749 -39 c351 -238 601 -615 685 -1033 26 -132 35 -363 19 -499 -23 -203
-109 -468 -203 -628 -172 -293 -421 -529 -702 -665 -134 -65 -172 -77 -187
-62 -13 13 5 42 26 42 21 0 230 108 301 155 182 123 326 268 449 455 157 238
247 496 264 761 20 301 -33 577 -160 832 -28 56 -61 116 -74 134 -13 17 -24
36 -24 42 0 6 -4 11 -9 11 -5 0 -12 8 -15 18 -3 9 -16 29 -28 44 -13 14 -39
46 -58 69 -84 104 -276 276 -294 264 -3 -3 -4 -2 -1 2 3 4 -22 24 -55 45 -33
21 -60 45 -60 53 0 29 46 15 126 -40z m-2396 -139 c0 -2 -7 -7 -16 -10 -8 -3
-12 -2 -9 4 6 10 25 14 25 6z m3415 -2416 c7 -12 -10 -41 -46 -80 -13 -14 -38
-44 -56 -66 -30 -38 -30 -41 -15 -60 10 -11 108 -96 220 -189 111 -93 202
-174 202 -181 0 -39 -36 -24 -125 52 -27 24 -111 93 -185 155 -74 61 -142 118
-151 126 -14 12 -25 3 -89 -77 -72 -89 -103 -109 -117 -74 -3 9 6 28 24 47 16
18 41 46 54 63 13 17 60 74 104 126 44 51 93 111 109 131 29 36 58 47 71 27z
m-3743 -103 c100 -103 154 -216 145 -299 -7 -58 -25 -87 -81 -132 -31 -26 -46
-30 -94 -31 -98 0 -191 64 -293 201 l-40 54 -47 -35 c-26 -19 -52 -39 -57 -43
-54 -45 -98 -69 -115 -65 -42 11 -37 15 302 265 223 166 206 160 280 85z
m3280 -402 c1 -5 -27 -27 -62 -47 -81 -47 -164 -118 -184 -160 -23 -46 -20
-109 7 -149 21 -30 28 -34 63 -32 21 1 73 16 114 33 221 93 311 93 374 -3 52
-82 27 -167 -74 -252 -55 -46 -223 -130 -245 -122 -32 13 -12 33 66 71 144 70
211 132 223 206 8 44 -9 77 -54 108 -29 20 -43 22 -80 17 -41 -6 -181 -57
-205 -75 -20 -15 -124 -32 -157 -26 -59 11 -108 84 -108 160 1 51 33 108 94
163 97 89 222 148 228 108z m-2810 -96 c98 -20 184 -83 226 -164 21 -41 26
-63 25 -125 -1 -126 -61 -241 -167 -321 -59 -45 -104 -59 -188 -59 -55 0 -75
5 -125 33 -81 44 -95 56 -128 104 -82 126 -54 305 68 431 56 58 101 84 167 98
71 16 61 16 122 3z m2260 -426 c259 -264 333 -345 336 -364 6 -37 -31 -20 -99
46 l-67 65 -98 -36 c-55 -20 -117 -42 -139 -49 -93 -29 -91 -27 -101 -133 -8
-90 -11 -97 -31 -100 -14 -2 -23 2 -24 10 -5 55 44 669 55 687 4 6 13 11 20
11 7 0 73 -62 148 -137z m-1519 62 c90 -31 170 -86 210 -144 69 -101 39 -299
-60 -393 -52 -50 -118 -72 -218 -72 -99 -1 -222 25 -257 54 -25 20 -31 -15 61
345 69 269 59 249 132 241 33 -3 93 -17 132 -31z m972 -102 c57 -21 69 -49 20
-46 -16 0 -59 9 -95 18 -227 58 -416 -148 -328 -359 30 -70 87 -132 148 -160
56 -25 174 -26 240 -1 76 28 76 28 77 6 2 -28 -36 -47 -122 -62 -174 -30 -319
40 -393 190 -58 120 -27 271 75 361 89 78 250 101 378 53z"/>
<path d="M2990 5504 c-105 -19 -170 -47 -244 -105 l-49 -39 127 0 c70 0 136
-4 146 -10 35 -19 33 -88 -4 -112 -6 -4 -90 -8 -188 -8 l-176 0 -21 -62 c-12
-34 -21 -68 -21 -75 0 -10 42 -13 198 -13 212 0 226 -3 237 -50 4 -18 0 -34
-15 -53 l-21 -27 -204 0 -203 0 -1 -74 -1 -74 206 1 c222 0 226 -1 239 -55 5
-21 1 -33 -19 -52 l-25 -26 -201 0 -200 0 0 -70 0 -70 193 0 c229 0 241 -4
245 -72 3 -43 1 -46 -29 -57 -19 -7 -108 -11 -220 -11 l-189 0 0 -70 0 -70
203 0 c182 0 206 -2 219 -17 26 -30 31 -73 12 -94 -16 -17 -34 -19 -226 -19
l-208 0 0 -75 0 -75 206 -2 207 -3 19 -26 c21 -28 18 -57 -8 -84 -13 -12 -51
-15 -220 -15 l-204 0 0 -75 0 -75 203 0 c225 -1 240 -4 240 -61 0 -21 -7 -38
-22 -51 -21 -16 -44 -18 -223 -18 l-200 0 5 -307 c3 -282 6 -314 25 -374 75
-229 313 -377 547 -340 192 29 353 171 409 360 13 45 16 108 16 358 l0 303
-199 0 c-178 0 -201 2 -222 18 -15 13 -22 30 -22 52 0 57 13 60 240 60 l203 0
0 75 0 75 -200 0 c-187 0 -201 1 -220 20 -24 24 -26 57 -4 88 15 22 20 22 220
22 l204 0 0 75 0 75 -204 0 c-173 0 -207 2 -220 16 -22 22 -20 70 4 94 19 19
33 20 220 20 l200 0 0 73 0 72 -187 -3 c-202 -3 -239 3 -249 44 -10 41 3 71
37 83 19 6 108 11 215 11 l184 0 0 70 0 70 -189 0 c-104 0 -201 4 -215 10 -44
16 -48 102 -5 115 11 4 108 7 215 8 l194 1 0 73 0 73 -200 0 c-187 0 -201 1
-220 20 -24 24 -26 72 -4 94 13 14 47 16 220 16 l204 0 -6 28 c-4 15 -14 47
-23 72 l-17 45 -183 5 c-166 5 -184 7 -197 24 -20 28 -17 63 6 86 18 18 33 20
146 20 115 0 125 1 113 16 -24 29 -118 83 -178 104 -60 20 -174 32 -221 24z
m90 -1345 c0 -12 -39 -17 -43 -5 -3 6 6 11 19 11 13 0 24 -3 24 -6z m-377
-980 c34 -18 37 -28 37 -124 0 -105 24 -170 90 -242 25 -26 40 -52 40 -68 0
-32 -33 -65 -65 -65 -54 0 -152 126 -181 232 -7 29 -14 97 -14 150 0 89 2 98
22 112 27 19 42 20 71 5z m551 -573 c-10 -8 -21 -12 -23 -10 -3 2 4 11 15 18
10 8 21 12 23 10 3 -2 -4 -11 -15 -18z"/>
<path d="M1090 2014 c-47 -36 -93 -71 -103 -79 -9 -8 -22 -15 -28 -15 -46 0
116 -202 195 -242 53 -27 96 -27 135 2 67 47 78 132 31 227 -31 62 -117 172
-135 172 -5 0 -48 -29 -95 -65z"/>
<path d="M1590 1527 c-54 -17 -153 -123 -181 -193 -34 -87 -32 -185 4 -247 46
-77 143 -136 227 -137 146 0 290 174 290 352 0 157 -179 275 -340 225z"/>
<path d="M3867 1180 c-13 -62 -27 -324 -18 -333 6 -6 53 6 128 34 109 40 132
52 133 71 0 4 -54 62 -119 130 -110 113 -120 121 -124 98z"/>
<path d="M2301 1131 c-11 -42 -34 -130 -51 -196 -17 -66 -38 -144 -46 -174 -7
-29 -11 -58 -8 -63 11 -18 67 -36 144 -47 144 -21 239 22 291 133 40 85 48
169 22 227 -39 86 -141 156 -267 183 l-65 13 -20 -76z"/>
</g>
</svg>
